<?xml version="1.0" encoding="UTF-8" standalone="no"?>
<!DOCTYPE svg PUBLIC "-//W3C//DTD SVG 1.1//EN"
 "http://www.w3.org/Graphics/SVG/1.1/DTD/svg11.dtd">
<!-- Generated by graphviz version 2.49.3 (0)
 -->
<!-- Title: G Pages: 1 -->
<svg width="364pt" height="131pt"
 viewBox="0.00 0.00 364.30 131.00" xmlns="http://www.w3.org/2000/svg" xmlns:xlink="http://www.w3.org/1999/xlink">
<g id="graph0" class="graph" transform="scale(1 1) rotate(0) translate(4 127)">
<title>G</title>
<polygon fill="white" stroke="transparent" points="-4,4 -4,-127 360.3,-127 360.3,4 -4,4"/>
<!-- rank1 -->
<!-- rank2 -->
<!-- rank1&#45;&gt;rank2 -->
<!-- n_svc -->
<g id="node3" class="node">
<title>n_svc</title>
<ellipse fill="none" stroke="black" cx="106.5" cy="-105" rx="70.39" ry="18"/>
<text text-anchor="middle" x="106.5" y="-101.3" font-family="Times,serif" font-size="14.00">Auth Service</text>
</g>
<!-- rank1&#45;&gt;n_svc -->
<!-- n_tenant -->
<g id="node4" class="node">
<title>n_tenant</title>
<ellipse fill="none" stroke="black" cx="78.5" cy="-18" rx="42.49" ry="18"/>
<text text-anchor="middle" x="78.5" y="-14.3" font-family="Times,serif" font-size="14.00">Tenant</text>
</g>
<!-- rank2&#45;&gt;n_tenant -->
<!-- n_svc&#45;&gt;n_tenant -->
<g id="edge6" class="edge">
<title>n_svc&#45;&gt;n_tenant</title>
<path fill="none" stroke="black" d="M73.71,-88.94C66.04,-83.77 58.85,-77.17 54.5,-69 50.11,-60.76 52.49,-51.59 57.14,-43.38"/>
<polygon fill="black" stroke="black" points="60.15,-45.17 62.86,-34.93 54.35,-41.25 60.15,-45.17"/>
<text text-anchor="middle" x="78" y="-57.8" font-family="Times,serif" font-size="14.00">2. JWT</text>
</g>
<!-- n_tenant&#45;&gt;n_svc -->
<g id="edge5" class="edge">
<title>n_tenant&#45;&gt;n_svc</title>
<path fill="none" stroke="black" d="M94.09,-34.78C98.64,-40.39 103.05,-47.05 105.5,-54 108.01,-61.12 108.93,-69.18 109.05,-76.71"/>
<polygon fill="black" stroke="black" points="105.55,-76.77 108.77,-86.86 112.54,-76.96 105.55,-76.77"/>
<text text-anchor="middle" x="138.5" y="-57.8" font-family="Times,serif" font-size="14.00">1. mTLS</text>
</g>
<!-- n_provider -->
<g id="node5" class="node">
<title>n_provider</title>
<ellipse fill="none" stroke="black" cx="309.5" cy="-18" rx="46.59" ry="18"/>
<text text-anchor="middle" x="309.5" y="-14.3" font-family="Times,serif" font-size="14.00">Log API</text>
</g>
<!-- n_tenant&#45;&gt;n_provider -->
<!-- n_tenant&#45;&gt;n_provider -->
<g id="edge7" class="edge">
<title>n_tenant&#45;&gt;n_provider</title>
<path fill="none" stroke="black" d="M120.87,-18C157.85,-18 211.83,-18 252.58,-18"/>
<polygon fill="black" stroke="black" points="252.63,-21.5 262.63,-18 252.63,-14.5 252.63,-21.5"/>
<text text-anchor="middle" x="191.73" y="-24.8" font-family="Times,serif" font-size="14.00">3. HTTPS (+JWT)</text>
</g>
</g>
</svg>
