<?xml version="1.0" encoding="UTF-8" standalone="no"?>
<!DOCTYPE svg PUBLIC "-//W3C//DTD SVG 1.1//EN"
 "http://www.w3.org/Graphics/SVG/1.1/DTD/svg11.dtd">
<!-- Generated by graphviz version 2.49.3 (0)
 -->
<!-- Title: G Pages: 1 -->
<svg width="617pt" height="285pt"
 viewBox="0.00 0.00 617.08 285.37" xmlns="http://www.w3.org/2000/svg" xmlns:xlink="http://www.w3.org/1999/xlink">
<g id="graph0" class="graph" transform="scale(1 1) rotate(0) translate(4 281.37)">
<title>G</title>
<polygon fill="white" stroke="transparent" points="-4,4 -4,-281.37 613.08,-281.37 613.08,4 -4,4"/>
<g id="clust1" class="cluster">
<title>cluster_N</title>
<polygon fill="none" stroke="black" stroke-dasharray="1,5" points="143.29,-118.37 143.29,-269.37 601.08,-269.37 601.08,-118.37 143.29,-118.37"/>
<text text-anchor="middle" x="372.18" y="-254.17" font-family="Times,serif" font-size="14.00">Network</text>
</g>
<!-- n_order -->
<g id="node1" class="node">
<title>n_order</title>
<polygon fill="none" stroke="black" points="410.08,-126.37 410.08,-172.37 593.08,-172.37 593.08,-126.37 410.08,-126.37"/>
<text text-anchor="middle" x="439.58" y="-145.67" font-family="Times,serif" font-size="14.00">Order</text>
<polyline fill="none" stroke="black" points="469.08,-126.37 469.08,-172.37 "/>
<text text-anchor="middle" x="493.08" y="-157.17" font-family="Times,serif" font-size="14.00">CPU</text>
<polyline fill="none" stroke="black" points="517.08,-149.37 517.08,-172.37 "/>
<text text-anchor="middle" x="555.08" y="-157.17" font-family="Times,serif" font-size="14.00">Memory</text>
<polyline fill="none" stroke="black" points="469.08,-149.37 593.08,-149.37 "/>
<text text-anchor="middle" x="499.58" y="-134.17" font-family="Times,serif" font-size="14.00">0.5</text>
<polyline fill="none" stroke="black" points="530.08,-126.37 530.08,-149.37 "/>
<text text-anchor="middle" x="561.58" y="-134.17" font-family="Times,serif" font-size="14.00">4Gi</text>
</g>
<!-- n_bid1 -->
<g id="node2" class="node">
<title>n_bid1</title>
<polygon fill="none" stroke="black" points="276.08,-126.37 276.08,-172.37 374.08,-172.37 374.08,-126.37 276.08,-126.37"/>
<text text-anchor="middle" x="296.58" y="-145.67" font-family="Times,serif" font-size="14.00">Bid</text>
<polyline fill="none" stroke="black" points="317.08,-126.37 317.08,-172.37 "/>
<text text-anchor="middle" x="345.58" y="-157.17" font-family="Times,serif" font-size="14.00">Price</text>
<polyline fill="none" stroke="black" points="317.08,-149.37 374.08,-149.37 "/>
<text text-anchor="middle" x="345.58" y="-134.17" font-family="Times,serif" font-size="14.00">4uakt</text>
</g>
<!-- n_bid1&#45;&gt;n_order -->
<g id="edge1" class="edge">
<title>n_bid1&#45;&gt;n_order</title>
<path fill="none" stroke="black" d="M374.23,-149.37C382.36,-149.37 391.07,-149.37 399.97,-149.37"/>
<polygon fill="black" stroke="black" points="400.07,-152.87 410.07,-149.37 400.07,-145.87 400.07,-152.87"/>
</g>
<!-- n_bid2 -->
<g id="node3" class="node">
<title>n_bid2</title>
<polygon fill="none" stroke="black" points="276.08,-191.37 276.08,-237.37 374.08,-237.37 374.08,-191.37 276.08,-191.37"/>
<text text-anchor="middle" x="296.58" y="-210.67" font-family="Times,serif" font-size="14.00">Bid</text>
<polyline fill="none" stroke="black" points="317.08,-191.37 317.08,-237.37 "/>
<text text-anchor="middle" x="345.58" y="-222.17" font-family="Times,serif" font-size="14.00">Price</text>
<polyline fill="none" stroke="black" points="317.08,-214.37 374.08,-214.37 "/>
<text text-anchor="middle" x="345.58" y="-199.17" font-family="Times,serif" font-size="14.00">2uakt</text>
</g>
<!-- n_bid2&#45;&gt;n_order -->
<g id="edge2" class="edge">
<title>n_bid2&#45;&gt;n_order</title>
<path fill="none" stroke="black" d="M374.23,-196.43C391.15,-190.13 410.55,-182.9 428.98,-176.04"/>
<polygon fill="black" stroke="black" points="430.37,-179.25 438.52,-172.48 427.92,-172.69 430.37,-179.25"/>
</g>
<!-- n_lease -->
<!-- n_lease&#45;&gt;n_bid2 -->
<!-- n_tenant -->
<g id="node5" class="node">
<title>n_tenant</title>
<ellipse fill="none" stroke="black" cx="42.25" cy="-69.37" rx="42.49" ry="18"/>
<text text-anchor="middle" x="42.25" y="-65.67" font-family="Times,serif" font-size="14.00">Tenant</text>
</g>
<!-- n_tenant&#45;&gt;n_order -->
<g id="edge4" class="edge">
<title>n_tenant&#45;&gt;n_order</title>
<path fill="none" stroke="black" stroke-dasharray="5,2" d="M58.88,-52.7C73.31,-38.62 96.15,-19.49 120.49,-11.37 170.91,5.46 188.5,1.45 240.08,-11.37 324.66,-32.38 411.97,-86.49 460.96,-120.38"/>
<polygon fill="black" stroke="black" points="459.16,-123.39 469.37,-126.25 463.18,-117.65 459.16,-123.39"/>
</g>
<!-- n_tenant&#45;&gt;n_lease -->
<!-- n_provider1 -->
<g id="node6" class="node">
<title>n_provider1</title>
<ellipse fill="none" stroke="black" cx="180.29" cy="-38.37" rx="59.59" ry="18"/>
<text text-anchor="middle" x="180.29" y="-34.67" font-family="Times,serif" font-size="14.00">Provider 1</text>
</g>
<!-- n_provider1&#45;&gt;n_bid1 -->
<g id="edge5" class="edge">
<title>n_provider1&#45;&gt;n_bid1</title>
<path fill="none" stroke="black" stroke-dasharray="5,2" d="M217.53,-52.55C225.26,-56.24 233.17,-60.55 240.08,-65.37 261.66,-80.38 282.58,-101.27 298.14,-118.46"/>
<polygon fill="black" stroke="black" points="295.64,-120.92 304.9,-126.07 300.87,-116.27 295.64,-120.92"/>
</g>
<!-- n_provider2 -->
<g id="node7" class="node">
<title>n_provider2</title>
<ellipse fill="none" stroke="black" cx="180.29" cy="-92.37" rx="59.59" ry="18"/>
<text text-anchor="middle" x="180.29" y="-88.67" font-family="Times,serif" font-size="14.00">Provider 2</text>
</g>
<!-- n_provider2&#45;&gt;n_bid2 -->
<g id="edge6" class="edge">
<title>n_provider2&#45;&gt;n_bid2</title>
<path fill="none" stroke="black" stroke-dasharray="5,2" d="M224.78,-104.44C230.3,-107.14 235.58,-110.41 240.08,-114.37 265.77,-136.94 253.15,-156.99 276.08,-182.37 276.7,-183.05 277.33,-183.72 277.98,-184.39"/>
<polygon fill="black" stroke="black" points="275.7,-187.05 285.45,-191.21 280.43,-181.88 275.7,-187.05"/>
</g>
</g>
</svg>
