<?xml version="1.0" encoding="UTF-8" standalone="no"?>
<!DOCTYPE svg PUBLIC "-//W3C//DTD SVG 1.1//EN"
 "http://www.w3.org/Graphics/SVG/1.1/DTD/svg11.dtd">
<!-- Generated by graphviz version 2.49.3 (0)
 -->
<!-- Title: G Pages: 1 -->
<svg width="617pt" height="285pt"
 viewBox="0.00 0.00 617.08 285.37" xmlns="http://www.w3.org/2000/svg" xmlns:xlink="http://www.w3.org/1999/xlink">
<g id="graph0" class="graph" transform="scale(1 1) rotate(0) translate(4 281.37)">
<title>G</title>
<polygon fill="white" stroke="transparent" points="-4,4 -4,-281.37 613.08,-281.37 613.08,4 -4,4"/>
<g id="clust1" class="cluster">
<title>cluster_N</title>
<polygon fill="none" stroke="black" stroke-dasharray="1,5" points="143.29,-118.37 143.29,-269.37 601.08,-269.37 601.08,-118.37 143.29,-118.37"/>
<text text-anchor="middle" x="372.18" y="-254.17" font-family="Times,serif" font-size="14.00">Network</text>
</g>
<!-- n_order -->
<g id="node1" class="node">
<title>n_order</title>
<polygon fill="none" stroke="black" points="410.08,-126.37 410.08,-172.37 593.08,-172.37 593.08,-126.37 410.08,-126.37"/>
<text text-anchor="middle" x="439.58" y="-145.67" font-family="Times,serif" font-size="14.00">Order</text>
<polyline fill="none" stroke="black" points="469.08,-126.37 469.08,-172.37 "/>
<text text-anchor="middle" x="493.08" y="-157.17" font-family="Times,serif" font-size="14.00">CPU</text>
<polyline fill="none" stroke="black" points="517.08,-149.37 517.08,-172.37 "/>
<text text-anchor="middle" x="555.08" y="-157.17" font-family="Times,serif" font-size="14.00">Memory</text>
<polyline fill="none" stroke="black" points="469.08,-149.37 593.08,-149.37 "/>
<text text-anchor="middle" x="499.58" y="-134.17" font-family="Times,serif" font-size="14.00">0.5</text>
<polyline fill="none" stroke="black" points="530.08,-126.37 530.08,-149.37 "/>
<text text-anchor="middle" x="561.58" y="-134.17" font-family="Times,serif" font-size="14.00">4Gi</text>
</g>
<!-- n_bid1 -->
<!-- n_bid1&#45;&gt;n_order -->
<!-- n_bid2 -->
<!-- n_bid2&#45;&gt;n_order -->
<!-- n_lease -->
<!-- n_lease&#45;&gt;n_bid2 -->
<!-- n_tenant -->
<g id="node5" class="node">
<title>n_tenant</title>
<ellipse fill="none" stroke="black" cx="42.25" cy="-69.37" rx="42.49" ry="18"/>
<text text-anchor="middle" x="42.25" y="-65.67" font-family="Times,serif" font-size="14.00">Tenant</text>
</g>
<!-- n_tenant&#45;&gt;n_order -->
<g id="edge4" class="edge">
<title>n_tenant&#45;&gt;n_order</title>
<path fill="none" stroke="black" stroke-dasharray="5,2" d="M58.88,-52.7C73.31,-38.62 96.15,-19.49 120.49,-11.37 170.91,5.46 188.5,1.45 240.08,-11.37 324.66,-32.38 411.97,-86.49 460.96,-120.38"/>
<polygon fill="black" stroke="black" points="459.16,-123.39 469.37,-126.25 463.18,-117.65 459.16,-123.39"/>
</g>
<!-- n_tenant&#45;&gt;n_lease -->
<!-- n_provider1 -->
<!-- n_provider1&#45;&gt;n_bid1 -->
<!-- n_provider2 -->
<!-- n_provider2&#45;&gt;n_bid2 -->
</g>
</svg>
