<?xml version="1.0" encoding="UTF-8" standalone="no"?>
<!DOCTYPE svg PUBLIC "-//W3C//DTD SVG 1.1//EN"
 "http://www.w3.org/Graphics/SVG/1.1/DTD/svg11.dtd">
<!-- Generated by graphviz version 2.49.3 (0)
 -->
<!-- Title: G Pages: 1 -->
<svg width="614pt" height="282pt"
 viewBox="0.00 0.00 614.00 282.00" xmlns="http://www.w3.org/2000/svg" xmlns:xlink="http://www.w3.org/1999/xlink">
<g id="graph0" class="graph" transform="scale(1 1) rotate(0) translate(4 278)">
<title>G</title>
<polygon fill="white" stroke="transparent" points="-4,4 -4,-278 610,-278 610,4 -4,4"/>
<g id="clust1" class="cluster">
<title>cluster_N</title>
<polygon fill="none" stroke="black" stroke-dasharray="1,5" points="8,-8 8,-139 359,-139 359,-8 8,-8"/>
<text text-anchor="middle" x="183.5" y="-123.8" font-family="Times,serif" font-size="14.00">Network</text>
</g>
<g id="clust3" class="cluster">
<title>cluster_X</title>
</g>
<!-- n_lease -->
<g id="node1" class="node">
<title>n_lease</title>
<polygon fill="none" stroke="black" points="24,-72 24,-93 158,-93 158,-72 24,-72"/>
<text text-anchor="start" x="70" y="-78.8" font-family="Times,serif" font-size="14.00">Lease</text>
<polygon fill="none" stroke="black" points="24,-51 24,-72 92,-72 92,-51 24,-51"/>
<text text-anchor="start" x="33.5" y="-57.8" font-family="Times,serif" font-size="14.00">Tenant</text>
<polygon fill="none" stroke="black" points="92,-51 92,-72 158,-72 158,-51 92,-51"/>
<text text-anchor="start" x="95.5" y="-57.8" font-family="Times,serif" font-size="14.00">akash1a</text>
<polygon fill="none" stroke="black" points="24,-30 24,-51 92,-51 92,-30 24,-30"/>
<text text-anchor="start" x="27" y="-36.8" font-family="Times,serif" font-size="14.00">Provider</text>
<polygon fill="none" stroke="black" points="92,-30 92,-51 158,-51 158,-30 92,-30"/>
<text text-anchor="start" x="95" y="-36.8" font-family="Times,serif" font-size="14.00">akash1b</text>
</g>
<!-- n_cert -->
<g id="node2" class="node">
<title>n_cert</title>
<polygon fill="none" stroke="black" points="209,-83 209,-104 343,-104 343,-83 209,-83"/>
<text text-anchor="start" x="234.5" y="-89.8" font-family="Times,serif" font-size="14.00">Certificates</text>
<polygon fill="none" stroke="black" points="209,-62 209,-83 275,-83 275,-62 209,-62"/>
<text text-anchor="start" x="217.5" y="-68.8" font-family="Times,serif" font-size="14.00">Tenant</text>
<polygon fill="none" stroke="black" points="275,-62 275,-83 343,-83 343,-62 275,-62"/>
<text text-anchor="start" x="278" y="-68.8" font-family="Times,serif" font-size="14.00">Provider</text>
<polygon fill="none" stroke="black" points="209,-41 209,-62 275,-62 275,-41 209,-41"/>
<text text-anchor="start" x="212.5" y="-47.8" font-family="Times,serif" font-size="14.00">akash1a</text>
<polygon fill="none" stroke="black" points="275,-41 275,-62 343,-62 343,-41 275,-41"/>
<text text-anchor="start" x="296.5" y="-47.8" font-family="Times,serif" font-size="14.00">xyz</text>
<polygon fill="none" stroke="black" points="209,-20 209,-41 275,-41 275,-20 209,-20"/>
<text text-anchor="start" x="212" y="-26.8" font-family="Times,serif" font-size="14.00">akash1b</text>
<polygon fill="none" stroke="black" points="275,-20 275,-41 343,-41 343,-20 275,-20"/>
<text text-anchor="start" x="296.5" y="-26.8" font-family="Times,serif" font-size="14.00">abc</text>
</g>
<!-- n_lease&#45;&gt;n_cert -->
<g id="edge1" class="edge">
<title>n_lease:l1&#45;&gt;n_cert:o1</title>
<path fill="none" stroke="black" d="M159,-61C177.41,-61 183.69,-54.14 197.93,-51.78"/>
<polygon fill="black" stroke="black" points="198.3,-55.27 208,-51 197.76,-48.29 198.3,-55.27"/>
</g>
<!-- n_lease&#45;&gt;n_cert -->
<g id="edge2" class="edge">
<title>n_lease:l2&#45;&gt;n_cert:o2</title>
<path fill="none" stroke="black" d="M159,-40C177.41,-40 183.69,-33.14 197.93,-30.78"/>
<polygon fill="black" stroke="black" points="198.3,-34.27 208,-30 197.76,-27.29 198.3,-34.27"/>
</g>
<!-- n_manifest -->
<g id="node3" class="node">
<title>n_manifest</title>
<polygon fill="none" stroke="black" points="294,-233 294,-254 421,-254 421,-233 294,-233"/>
<text text-anchor="start" x="325.5" y="-239.8" font-family="Times,serif" font-size="14.00">Manifest</text>
<polygon fill="none" stroke="black" points="294,-212 294,-233 345,-233 345,-212 294,-212"/>
<text text-anchor="start" x="297" y="-218.8" font-family="Times,serif" font-size="14.00">Image</text>
<polygon fill="none" stroke="black" points="345,-212 345,-233 421,-233 421,-212 345,-212"/>
<text text-anchor="start" x="358.5" y="-218.8" font-family="Times,serif" font-size="14.00">foo:1.1</text>
<polygon fill="none" stroke="black" points="294,-191 294,-212 345,-212 345,-191 294,-191"/>
<text text-anchor="start" x="302.5" y="-197.8" font-family="Times,serif" font-size="14.00">Host</text>
<polygon fill="none" stroke="black" points="345,-191 345,-212 421,-212 421,-191 345,-191"/>
<text text-anchor="start" x="355" y="-197.8" font-family="Times,serif" font-size="14.00">foo.com</text>
<polygon fill="none" stroke="black" points="294,-170 294,-191 345,-191 345,-170 294,-170"/>
<text text-anchor="start" x="302.5" y="-176.8" font-family="Times,serif" font-size="14.00">Cmd</text>
<polygon fill="none" stroke="black" points="345,-170 345,-191 421,-191 421,-170 345,-170"/>
<text text-anchor="start" x="348" y="-176.8" font-family="Times,serif" font-size="14.00">./foo start</text>
</g>
<!-- n_provider1 -->
<g id="node5" class="node">
<title>n_provider1</title>
<ellipse fill="none" stroke="black" cx="539" cy="-212" rx="50.89" ry="18"/>
<text text-anchor="middle" x="539" y="-208.3" font-family="Times,serif" font-size="14.00">Provider</text>
</g>
<!-- n_manifest&#45;&gt;n_provider1 -->
<g id="edge4" class="edge">
<title>n_manifest&#45;&gt;n_provider1</title>
<path fill="none" stroke="black" d="M428.67,-212C444.99,-212 462.18,-212 478.01,-212"/>
<polygon fill="black" stroke="black" points="478.19,-215.5 488.19,-212 478.19,-208.5 478.19,-215.5"/>
<text text-anchor="middle" x="458.4" y="-218.8" font-family="Times,serif" font-size="14.00">mTLS</text>
</g>
<!-- n_tenant -->
<g id="node4" class="node">
<title>n_tenant</title>
<ellipse fill="none" stroke="black" cx="184" cy="-212" rx="42.49" ry="18"/>
<text text-anchor="middle" x="184" y="-208.3" font-family="Times,serif" font-size="14.00">Tenant</text>
</g>
<!-- n_tenant&#45;&gt;n_cert -->
<!-- n_tenant&#45;&gt;n_manifest -->
<g id="edge3" class="edge">
<title>n_tenant&#45;&gt;n_manifest</title>
<path fill="none" stroke="black" d="M226.32,-212C241.07,-212 258.15,-212 275.01,-212"/>
<polygon fill="black" stroke="black" points="275.45,-215.5 285.45,-212 275.45,-208.5 275.45,-215.5"/>
<text text-anchor="middle" x="255.87" y="-218.8" font-family="Times,serif" font-size="14.00">mTLS</text>
</g>
<!-- n_provider1&#45;&gt;n_cert -->
</g>
</svg>
